<svg xmlns="http://www.w3.org/2000/svg" viewBox="0 0 100 30" width="100" height="30">
  <path d="M0,15 L7,0 L14,0 L7,15 L0,15 Z" fill="#2e4d1b"/>
  <path d="M7,15 L14,30 L21,30 L14,15 L7,15 Z" fill="#2e4d1b"/>
  <path d="M14,15 L21,0 L28,0 L21,15 L14,15 Z" fill="#2e4d1b"/>
  <path d="M21,15 L28,30 L35,30 L28,15 L21,15 Z" fill="#2e4d1b"/>
  <path d="M35,0 L42,0 L42,30 L35,30 L35,0 Z" fill="#2e4d1b"/>
  <path d="M45,0 L52,0 L59,15 L66,0 L73,0 L73,30 L66,30 L66,15 L59,30 L52,30 L45,15 L45,30 L38,30 L38,0 L45,0 Z" fill="#2e4d1b"/>
  <path d="M76,0 L97,0 L97,7 L83,7 L83,11 L94,11 L94,18 L83,18 L83,23 L97,23 L97,30 L76,30 L76,0 Z" fill="#2e4d1b"/>
</svg> 